<svg width="40" height="40" viewBox="0 0 40 40" fill="none" xmlns="http://www.w3.org/2000/svg">
<path d="M20 0C31.0457 0 40 8.95431 40 20C40 31.0457 31.0457 40 20 40C8.95431 40 0 31.0457 0 20C0 8.95431 8.95431 0 20 0Z" fill="#004225" fill-opacity="0.1"/>
<path d="M20 0C31.0457 0 40 8.95431 40 20C40 31.0457 31.0457 40 20 40C8.95431 40 0 31.0457 0 20C0 8.95431 8.95431 0 20 0Z" stroke="#E5E7EB"/>
<path d="M27 32H13V8H27V32Z" stroke="#E5E7EB"/>
<path d="M27 28H13V12H27V28Z" stroke="#E5E7EB"/>
<path d="M21 14.5C21 13.9469 20.5531 13.5 20 13.5C19.4469 13.5 19 13.9469 19 14.5V19H14.5C13.9469 19 13.5 19.4469 13.5 20C13.5 20.5531 13.9469 21 14.5 21H19V25.5C19 26.0531 19.4469 26.5 20 26.5C20.5531 26.5 21 26.0531 21 25.5V21H25.5C26.0531 21 26.5 20.5531 26.5 20C26.5 19.4469 26.0531 19 25.5 19H21V14.5Z" fill="#004225"/>
</svg>
