<svg width="32" height="32" viewBox="0 0 32 32" fill="none" xmlns="http://www.w3.org/2000/svg">
<path d="M16 0C24.8366 0 32 7.16344 32 16C32 24.8366 24.8366 32 16 32C7.16344 32 0 24.8366 0 16C0 7.16344 7.16344 0 16 0Z" fill="#00C48C" fill-opacity="0.1"/>
<path d="M16 0C24.8366 0 32 7.16344 32 16C32 24.8366 24.8366 32 16 32C7.16344 32 0 24.8366 0 16C0 7.16344 7.16344 0 16 0Z" stroke="#E5E7EB"/>
<path d="M23.5 24H8.5V8H23.5V24Z" stroke="#E5E7EB"/>
<g clip-path="url(#clip0_1_376)">
<path d="M10.75 12.5C10.75 11.7044 11.0661 10.9413 11.6287 10.3787C12.1913 9.81607 12.9544 9.5 13.75 9.5C14.5456 9.5 15.3087 9.81607 15.8713 10.3787C16.4339 10.9413 16.75 11.7044 16.75 12.5C16.75 13.2956 16.4339 14.0587 15.8713 14.6213C15.3087 15.1839 14.5456 15.5 13.75 15.5C12.9544 15.5 12.1913 15.1839 11.6287 14.6213C11.0661 14.0587 10.75 13.2956 10.75 12.5ZM8.5 20.8039C8.5 18.4953 10.3703 16.625 12.6789 16.625H14.8211C17.1297 16.625 19 18.4953 19 20.8039C19 21.1883 18.6883 21.5 18.3039 21.5H9.19609C8.81172 21.5 8.5 21.1883 8.5 20.8039ZM23.1484 13.6484L20.1484 16.6484C19.9281 16.8688 19.5719 16.8688 19.3539 16.6484L17.8539 15.1484C17.6336 14.9281 17.6336 14.5719 17.8539 14.3539C18.0742 14.1359 18.4305 14.1336 18.6484 14.3539L19.75 15.4555L22.3516 12.8516C22.5719 12.6312 22.9281 12.6312 23.1461 12.8516C23.3641 13.0719 23.3664 13.4281 23.1461 13.6461L23.1484 13.6484Z" fill="#00C48C"/>
</g>
<defs>
<clipPath id="clip0_1_376">
<path d="M8.5 9.5H23.5V21.5H8.5V9.5Z" fill="white"/>
</clipPath>
</defs>
</svg>
