<svg width="48" height="48" viewBox="0 0 48 48" fill="none" xmlns="http://www.w3.org/2000/svg">
<path d="M24 0C37.2548 0 48 10.7452 48 24C48 37.2548 37.2548 48 24 48C10.7452 48 0 37.2548 0 24C0 10.7452 10.7452 0 24 0Z" fill="#004225" fill-opacity="0.1"/>
<path d="M24 0C37.2548 0 48 10.7452 48 24C48 37.2548 37.2548 48 24 48C10.7452 48 0 37.2548 0 24C0 10.7452 10.7452 0 24 0Z" stroke="#E5E7EB"/>
<path d="M34 38H14V10H34V38Z" stroke="#E5E7EB"/>
<g clip-path="url(#clip0_1_312)">
<path d="M16.9297 16.4297L15.6016 15.1016C15.0117 14.5117 14 14.9297 14 15.7617V20.0625C14 20.582 14.418 21 14.9375 21H19.2383C20.0742 21 20.4922 19.9883 19.9023 19.3984L18.6992 18.1953C20.0547 16.8398 21.9297 16 24 16C28.1406 16 31.5 19.3594 31.5 23.5C31.5 27.6406 28.1406 31 24 31C22.4062 31 20.9297 30.5039 19.7148 29.6562C19.1484 29.2617 18.3711 29.3984 17.9727 29.9648C17.5742 30.5312 17.7148 31.3086 18.2812 31.707C19.9062 32.8359 21.8789 33.5 24 33.5C29.5234 33.5 34 29.0234 34 23.5C34 17.9766 29.5234 13.5 24 13.5C21.2383 13.5 18.7383 14.6211 16.9297 16.4297ZM24 18.5C23.4805 18.5 23.0625 18.918 23.0625 19.4375V23.5C23.0625 23.75 23.1602 23.9883 23.3359 24.1641L26.1484 26.9766C26.5156 27.3438 27.1094 27.3438 27.4727 26.9766C27.8359 26.6094 27.8398 26.0156 27.4727 25.6523L24.9336 23.1133V19.4375C24.9336 18.918 24.5156 18.5 23.9961 18.5H24Z" fill="#004225"/>
</g>
<defs>
<clipPath id="clip0_1_312">
<path d="M14 13.5H34V33.5H14V13.5Z" fill="white"/>
</clipPath>
</defs>
</svg>
