<svg width="32" height="32" viewBox="0 0 32 32" fill="none" xmlns="http://www.w3.org/2000/svg">
<path d="M16 0C24.8366 0 32 7.16344 32 16C32 24.8366 24.8366 32 16 32C7.16344 32 0 24.8366 0 16C0 7.16344 7.16344 0 16 0Z" fill="#004225" fill-opacity="0.1"/>
<path d="M16 0C24.8366 0 32 7.16344 32 16C32 24.8366 24.8366 32 16 32C7.16344 32 0 24.8366 0 16C0 7.16344 7.16344 0 16 0Z" stroke="#E5E7EB"/>
<path d="M22 24H10V8H22V24Z" stroke="#E5E7EB"/>
<g clip-path="url(#clip0_1_378)">
<path d="M17.875 17.75C20.1531 17.75 22 15.9031 22 13.625C22 11.3469 20.1531 9.5 17.875 9.5C15.5969 9.5 13.75 11.3469 13.75 13.625C13.75 14.0633 13.818 14.4875 13.9445 14.8836L10.1641 18.6641C10.0586 18.7695 10 18.9125 10 19.0625V20.9375C10 21.2492 10.2508 21.5 10.5625 21.5H12.4375C12.7492 21.5 13 21.2492 13 20.9375V20H13.9375C14.2492 20 14.5 19.7492 14.5 19.4375V18.5H15.4375C15.5875 18.5 15.7305 18.4414 15.8359 18.3359L16.6164 17.5555C17.0125 17.682 17.4367 17.75 17.875 17.75ZM18.8125 11.75C19.0611 11.75 19.2996 11.8488 19.4754 12.0246C19.6512 12.2004 19.75 12.4389 19.75 12.6875C19.75 12.9361 19.6512 13.1746 19.4754 13.3504C19.2996 13.5262 19.0611 13.625 18.8125 13.625C18.5639 13.625 18.3254 13.5262 18.1496 13.3504C17.9738 13.1746 17.875 12.9361 17.875 12.6875C17.875 12.4389 17.9738 12.2004 18.1496 12.0246C18.3254 11.8488 18.5639 11.75 18.8125 11.75Z" fill="#004225"/>
</g>
<defs>
<clipPath id="clip0_1_378">
<path d="M10 9.5H22V21.5H10V9.5Z" fill="white"/>
</clipPath>
</defs>
</svg>
