<svg width="48" height="48" viewBox="0 0 48 48" fill="none" xmlns="http://www.w3.org/2000/svg">
<path d="M24 0C37.2548 0 48 10.7452 48 24C48 37.2548 37.2548 48 24 48C10.7452 48 0 37.2548 0 24C0 10.7452 10.7452 0 24 0Z" fill="#004225" fill-opacity="0.1"/>
<path d="M24 0C37.2548 0 48 10.7452 48 24C48 37.2548 37.2548 48 24 48C10.7452 48 0 37.2548 0 24C0 10.7452 10.7452 0 24 0Z" stroke="#E5E7EB"/>
<path d="M32.75 38H15.25V10H32.75V38Z" stroke="#E5E7EB"/>
<g clip-path="url(#clip0_1_309)">
<path d="M15.25 16.625C15.25 15.5898 16.0898 14.75 17.125 14.75H20.875C21.9102 14.75 22.75 15.5898 22.75 16.625V20.375C22.75 21.4102 21.9102 22.25 20.875 22.25H17.125C16.0898 22.25 15.25 21.4102 15.25 20.375V16.625ZM17.75 17.25V19.75H20.25V17.25H17.75ZM15.25 26.625C15.25 25.5898 16.0898 24.75 17.125 24.75H20.875C21.9102 24.75 22.75 25.5898 22.75 26.625V30.375C22.75 31.4102 21.9102 32.25 20.875 32.25H17.125C16.0898 32.25 15.25 31.4102 15.25 30.375V26.625ZM17.75 27.25V29.75H20.25V27.25H17.75ZM27.125 14.75H30.875C31.9102 14.75 32.75 15.5898 32.75 16.625V20.375C32.75 21.4102 31.9102 22.25 30.875 22.25H27.125C26.0898 22.25 25.25 21.4102 25.25 20.375V16.625C25.25 15.5898 26.0898 14.75 27.125 14.75ZM30.25 17.25H27.75V19.75H30.25V17.25ZM25.25 25.375C25.25 25.0312 25.5312 24.75 25.875 24.75H28.375C28.7188 24.75 29 25.0312 29 25.375C29 25.7188 29.2812 26 29.625 26H30.875C31.2188 26 31.5 25.7188 31.5 25.375C31.5 25.0312 31.7812 24.75 32.125 24.75C32.4688 24.75 32.75 25.0312 32.75 25.375V29.125C32.75 29.4688 32.4688 29.75 32.125 29.75H29.625C29.2812 29.75 29 29.4688 29 29.125C29 28.7812 28.7188 28.5 28.375 28.5C28.0312 28.5 27.75 28.7812 27.75 29.125V31.625C27.75 31.9688 27.4688 32.25 27.125 32.25H25.875C25.5312 32.25 25.25 31.9688 25.25 31.625V25.375ZM29.625 32.25C29.4592 32.25 29.3003 32.1842 29.1831 32.0669C29.0658 31.9497 29 31.7908 29 31.625C29 31.4592 29.0658 31.3003 29.1831 31.1831C29.3003 31.0658 29.4592 31 29.625 31C29.7908 31 29.9497 31.0658 30.0669 31.1831C30.1842 31.3003 30.25 31.4592 30.25 31.625C30.25 31.7908 30.1842 31.9497 30.0669 32.0669C29.9497 32.1842 29.7908 32.25 29.625 32.25ZM32.125 32.25C31.9592 32.25 31.8003 32.1842 31.6831 32.0669C31.5658 31.9497 31.5 31.7908 31.5 31.625C31.5 31.4592 31.5658 31.3003 31.6831 31.1831C31.8003 31.0658 31.9592 31 32.125 31C32.2908 31 32.4497 31.0658 32.5669 31.1831C32.6842 31.3003 32.75 31.4592 32.75 31.625C32.75 31.7908 32.6842 31.9497 32.5669 32.0669C32.4497 32.1842 32.2908 32.25 32.125 32.25Z" fill="#004225"/>
</g>
<defs>
<clipPath id="clip0_1_309">
<path d="M15.25 13.5H32.75V33.5H15.25V13.5Z" fill="white"/>
</clipPath>
</defs>
</svg>
