<svg width="20" height="21" viewBox="0 0 20 21" fill="none" xmlns="http://www.w3.org/2000/svg">
<g clip-path="url(#clip0_1_236)">
<g clip-path="url(#clip1_1_236)">
<path d="M6.11328 17.9883L5.62109 19.1406C4.89062 18.7695 4.21875 18.3125 3.60938 17.7773L4.49609 16.8906C4.98438 17.3164 5.52734 17.6875 6.11328 17.9883ZM1.58594 11.125H0.332031C0.386719 11.9531 0.542969 12.7539 0.789063 13.5117L1.95312 13.0469C1.76172 12.4336 1.63281 11.7891 1.58594 11.125ZM1.58594 9.875C1.64062 9.14062 1.78906 8.42969 2.01953 7.76172L0.867188 7.26953C0.574219 8.08984 0.390625 8.96484 0.332031 9.875H1.58594ZM2.51172 6.61328C2.81641 6.03125 3.18359 5.48828 3.60938 4.99219L2.72266 4.10547C2.1875 4.71484 1.72656 5.38672 1.35938 6.11719L2.51172 6.61328ZM15.5078 16.8906C14.9648 17.3594 14.3594 17.7617 13.707 18.0781L14.1719 19.2422C14.9805 18.8555 15.7266 18.3594 16.3945 17.7734L15.5078 16.8906ZM4.49219 4.10938C5.03516 3.64062 5.64062 3.23828 6.29297 2.92188L5.82812 1.75781C5.01953 2.14453 4.27344 2.64063 3.60938 3.22656L4.49219 4.10938ZM17.4883 14.3867C17.1836 14.9688 16.8164 15.5117 16.3906 16.0078L17.2773 16.8945C17.8125 16.2852 18.2734 15.6094 18.6406 14.8828L17.4883 14.3867ZM18.4141 11.125C18.3594 11.8594 18.2109 12.5703 17.9805 13.2383L19.1328 13.7305C19.4258 12.9062 19.6094 12.0312 19.6641 11.1211H18.4141V11.125ZM12.5469 18.5469C11.9336 18.7422 11.2891 18.8672 10.625 18.9141V20.168C11.4531 20.1133 12.2539 19.957 13.0117 19.7109L12.5469 18.5469ZM9.375 18.9141C8.64062 18.8594 7.92969 18.7109 7.26172 18.4805L6.76953 19.6328C7.59375 19.9258 8.46875 20.1094 9.37891 20.1641V18.9141H9.375ZM18.0469 7.95312C18.2422 8.56641 18.3672 9.21094 18.4141 9.875H19.668C19.6133 9.04688 19.457 8.24609 19.2109 7.48828L18.0469 7.95312ZM3.60938 16.0078C3.14062 15.4648 2.73828 14.8594 2.42188 14.207L1.25781 14.6719C1.64453 15.4805 2.14063 16.2266 2.72656 16.8945L3.60938 16.0078ZM10.625 2.08594C11.3594 2.14062 12.0664 2.28906 12.7383 2.51953L13.2305 1.36719C12.4102 1.07422 11.5352 0.890625 10.625 0.832031V2.08594ZM7.45312 2.45312C8.06641 2.25781 8.71094 2.13281 9.375 2.08594V0.832031C8.54688 0.886719 7.74609 1.04297 6.98828 1.28906L7.45312 2.45312ZM17.2773 4.10547L16.3906 4.99219C16.8594 5.53516 17.2617 6.14062 17.582 6.79297L18.7461 6.32812C18.3594 5.51953 17.8633 4.77344 17.2773 4.10547ZM15.5078 4.10938L16.3945 3.22266C15.7852 2.6875 15.1133 2.22656 14.3828 1.85938L13.8906 3.01172C14.4688 3.31641 15.0156 3.68359 15.5078 4.10938Z" fill="#004225"/>
<path d="M10 15.8125C10.6041 15.8125 11.0938 15.3228 11.0938 14.7188C11.0938 14.1147 10.6041 13.625 10 13.625C9.39594 13.625 8.90625 14.1147 8.90625 14.7188C8.90625 15.3228 9.39594 15.8125 10 15.8125Z" fill="#004225"/>
<path d="M10.3008 12.6875H9.67578C9.41797 12.6875 9.20703 12.4766 9.20703 12.2188C9.20703 9.44531 12.2305 9.72266 12.2305 8.00781C12.2305 7.22656 11.5352 6.4375 9.98828 6.4375C8.85156 6.4375 8.25781 6.8125 7.67578 7.55859C7.52344 7.75391 7.24219 7.79297 7.04297 7.65234L6.53125 7.29297C6.3125 7.14062 6.26172 6.83203 6.42969 6.62109C7.25781 5.55859 8.24219 4.875 9.99219 4.875C12.0352 4.875 13.7969 6.03906 13.7969 8.00781C13.7969 10.6484 10.7734 10.4883 10.7734 12.2188C10.7695 12.4766 10.5586 12.6875 10.3008 12.6875Z" fill="#004225"/>
</g>
</g>
<defs>
<clipPath id="clip0_1_236">
<rect width="20" height="20" fill="white" transform="translate(0 0.5)"/>
</clipPath>
<clipPath id="clip1_1_236">
<path d="M0 0.5H20V20.5H0V0.5Z" fill="white"/>
</clipPath>
</defs>
</svg>
